<svg width="134" height="6" viewBox="0 0 134 6" fill="none" xmlns="http://www.w3.org/2000/svg">
<path d="M0 3L5 5.88675V0.113249L0 3ZM7.70192 3.5H12.8365V2.5H7.70192V3.5ZM17.9712 3.5H23.1058V2.5H17.9712V3.5ZM28.2404 3.5H33.375V2.5H28.2404V3.5ZM38.5096 3.5H43.6442V2.5H38.5096V3.5ZM48.7789 3.5H53.9135V2.5H48.7789V3.5ZM59.0481 3.5H64.1827V2.5H59.0481V3.5ZM69.3173 3.5H74.4519V2.5H69.3173V3.5ZM79.5865 3.5H84.7212V2.5H79.5865V3.5ZM89.8558 3.5H94.9904V2.5H89.8558V3.5ZM100.125 3.5H105.26V2.5H100.125V3.5ZM110.394 3.5H115.529V2.5H110.394V3.5ZM120.663 3.5H125.798V2.5H120.663V3.5ZM130.933 3.5H133.5V2.5H130.933V3.5Z" fill="#808080"/>
</svg>
