<svg width="95" height="23" viewBox="0 0 95 23" fill="none" xmlns="http://www.w3.org/2000/svg">
<path d="M95 3L90 0.113249V5.88675L95 3ZM17.3026 3V2.5H17.0728L16.9231 2.67441L17.3026 3ZM87.7159 2.5H82.8598V3.5H87.7159V2.5ZM78.0037 2.5H73.1476V3.5H78.0037V2.5ZM68.2915 2.5H63.4354V3.5H68.2915V2.5ZM58.5793 2.5H53.7232V3.5H58.5793V2.5ZM48.8672 2.5H44.0111V3.5H48.8672V2.5ZM39.155 2.5H34.2989V3.5H39.155V2.5ZM29.4428 2.5H24.5867V3.5H29.4428V2.5ZM19.7306 2.5H17.3026V3.5H19.7306V2.5ZM16.9231 2.67441L15.5646 4.25774L16.3235 4.90892L17.682 3.32559L16.9231 2.67441ZM12.8475 7.42441L10.1304 10.5911L10.8893 11.2423L13.6064 8.07559L12.8475 7.42441ZM7.41328 13.7577L4.69618 16.9244L5.45511 17.5756L8.1722 14.4089L7.41328 13.7577ZM1.97909 20.0911L0.620537 21.6744L1.37946 22.3256L2.73801 20.7423L1.97909 20.0911Z" fill="#808080"/>
</svg>
