<svg width="134" height="6" viewBox="0 0 134 6" fill="none" xmlns="http://www.w3.org/2000/svg">
<path d="M134 3L129 5.88675V0.113249L134 3ZM126.298 3.5H121.163V2.5H126.298V3.5ZM116.029 3.5H110.894V2.5H116.029V3.5ZM105.76 3.5H100.625V2.5H105.76V3.5ZM95.4904 3.5H90.3558V2.5H95.4904V3.5ZM85.2211 3.5H80.0865V2.5H85.2211V3.5ZM74.9519 3.5H69.8173V2.5H74.9519V3.5ZM64.6827 3.5H59.5481V2.5H64.6827V3.5ZM54.4135 3.5H49.2788V2.5H54.4135V3.5ZM44.1442 3.5H39.0096V2.5H44.1442V3.5ZM33.875 3.5H28.7404V2.5H33.875V3.5ZM23.6058 3.5H18.4712V2.5H23.6058V3.5ZM13.3366 3.5H8.20194V2.5H13.3366V3.5ZM3.06732 3.5H0.5V2.5H3.06732V3.5Z" fill="#808080"/>
</svg>
