<svg width="95" height="23" viewBox="0 0 95 23" fill="none" xmlns="http://www.w3.org/2000/svg">
<path d="M95 20L90 22.8868V17.1132L95 20ZM17.3026 20V20.5H17.0728L16.9231 20.3256L17.3026 20ZM87.7159 20.5H82.8598V19.5H87.7159V20.5ZM78.0037 20.5H73.1476V19.5H78.0037V20.5ZM68.2915 20.5H63.4354V19.5H68.2915V20.5ZM58.5793 20.5H53.7232V19.5H58.5793V20.5ZM48.8672 20.5H44.0111V19.5H48.8672V20.5ZM39.155 20.5H34.2989V19.5H39.155V20.5ZM29.4428 20.5H24.5867V19.5H29.4428V20.5ZM19.7306 20.5H17.3026V19.5H19.7306V20.5ZM16.9231 20.3256L15.5646 18.7423L16.3235 18.0911L17.682 19.6744L16.9231 20.3256ZM12.8475 15.5756L10.1304 12.4089L10.8893 11.7577L13.6064 14.9244L12.8475 15.5756ZM7.41328 9.24226L4.69618 6.07559L5.45511 5.42441L8.1722 8.59108L7.41328 9.24226ZM1.97909 2.90892L0.620537 1.32559L1.37946 0.67441L2.73801 2.25774L1.97909 2.90892Z" fill="#808080"/>
</svg>
