<svg width="98" height="6" viewBox="0 0 98 6" fill="none" xmlns="http://www.w3.org/2000/svg">
<path d="M0 3L5 5.88675L5 0.113248L0 3ZM7.35 3.5L12.25 3.5L12.25 2.5L7.35 2.5L7.35 3.5ZM17.15 3.5L22.05 3.5L22.05 2.5L17.15 2.5L17.15 3.5ZM26.95 3.5L31.85 3.5L31.85 2.5L26.95 2.5L26.95 3.5ZM36.75 3.5L41.65 3.5L41.65 2.5L36.75 2.5L36.75 3.5ZM46.55 3.5L51.45 3.5L51.45 2.5L46.55 2.5L46.55 3.5ZM56.35 3.5L61.25 3.49999L61.25 2.49999L56.35 2.5L56.35 3.5ZM66.15 3.49999L71.05 3.49999L71.05 2.49999L66.15 2.49999L66.15 3.49999ZM75.95 3.49999L80.85 3.49999L80.85 2.49999L75.95 2.49999L75.95 3.49999ZM85.75 3.49999L90.65 3.49999L90.65 2.49999L85.75 2.49999L85.75 3.49999ZM95.55 3.49999L98 3.49999L98 2.49999L95.55 2.49999L95.55 3.49999Z" fill="#808080"/>
</svg>
