<svg width="95" height="23" viewBox="0 0 95 23" fill="none" xmlns="http://www.w3.org/2000/svg">
<path d="M0 20L5 22.8868V17.1132L0 20ZM77.6974 20V20.5H77.9272L78.0769 20.3256L77.6974 20ZM7.28413 20.5H12.1402V19.5H7.28413V20.5ZM16.9963 20.5H21.8524V19.5H16.9963V20.5ZM26.7085 20.5H31.5646V19.5H26.7085V20.5ZM36.4207 20.5H41.2768V19.5H36.4207V20.5ZM46.1328 20.5H50.9889V19.5H46.1328V20.5ZM55.845 20.5H60.7011V19.5H55.845V20.5ZM65.5572 20.5H70.4133V19.5H65.5572V20.5ZM75.2694 20.5H77.6974V19.5H75.2694V20.5ZM78.0769 20.3256L79.4354 18.7423L78.6765 18.0911L77.318 19.6744L78.0769 20.3256ZM82.1525 15.5756L84.8696 12.4089L84.1107 11.7577L81.3936 14.9244L82.1525 15.5756ZM87.5867 9.24226L90.3038 6.07559L89.5449 5.42441L86.8278 8.59108L87.5867 9.24226ZM93.0209 2.90892L94.3795 1.32559L93.6205 0.67441L92.262 2.25774L93.0209 2.90892Z" fill="#808080"/>
</svg>
