<svg width="95" height="23" viewBox="0 0 95 23" fill="none" xmlns="http://www.w3.org/2000/svg">
<path d="M0 3L5 0.113249V5.88675L0 3ZM77.6974 3V2.5H77.9272L78.0769 2.67441L77.6974 3ZM7.28413 2.5H12.1402V3.5H7.28413V2.5ZM16.9963 2.5H21.8524V3.5H16.9963V2.5ZM26.7085 2.5H31.5646V3.5H26.7085V2.5ZM36.4207 2.5H41.2768V3.5H36.4207V2.5ZM46.1328 2.5H50.9889V3.5H46.1328V2.5ZM55.845 2.5H60.7011V3.5H55.845V2.5ZM65.5572 2.5H70.4133V3.5H65.5572V2.5ZM75.2694 2.5H77.6974V3.5H75.2694V2.5ZM78.0769 2.67441L79.4354 4.25774L78.6765 4.90892L77.318 3.32559L78.0769 2.67441ZM82.1525 7.42441L84.8696 10.5911L84.1107 11.2423L81.3936 8.07559L82.1525 7.42441ZM87.5867 13.7577L90.3038 16.9244L89.5449 17.5756L86.8278 14.4089L87.5867 13.7577ZM93.0209 20.0911L94.3795 21.6744L93.6205 22.3256L92.262 20.7423L93.0209 20.0911Z" fill="#808080"/>
</svg>
