<svg width="98" height="6" viewBox="0 0 98 6" fill="none" xmlns="http://www.w3.org/2000/svg">
<path d="M98 3L93 5.88675L93 0.113248L98 3ZM90.65 3.5L85.75 3.5L85.75 2.5L90.65 2.5L90.65 3.5ZM80.85 3.5L75.95 3.5L75.95 2.5L80.85 2.5L80.85 3.5ZM71.05 3.5L66.15 3.5L66.15 2.5L71.05 2.5L71.05 3.5ZM61.25 3.5L56.35 3.5L56.35 2.5L61.25 2.5L61.25 3.5ZM51.45 3.5L46.55 3.5L46.55 2.5L51.45 2.5L51.45 3.5ZM41.65 3.5L36.75 3.49999L36.75 2.49999L41.65 2.5L41.65 3.5ZM31.85 3.49999L26.95 3.49999L26.95 2.49999L31.85 2.49999L31.85 3.49999ZM22.05 3.49999L17.15 3.49999L17.15 2.49999L22.05 2.49999L22.05 3.49999ZM12.25 3.49999L7.34998 3.49999L7.34998 2.49999L12.25 2.49999L12.25 3.49999ZM2.44998 3.49999L-4.37114e-08 3.49999L4.37114e-08 2.49999L2.44998 2.49999L2.44998 3.49999Z" fill="#808080"/>
</svg>
